<svg width="26" height="10" viewBox="0 0 26 10" fill="none" xmlns="http://www.w3.org/2000/svg">
<path d="M2.37891 7.01953C2.37109 7.03516 2.34766 7.07812 2.30859 7.14844C2.26953 7.21094 2.24219 7.25391 2.22656 7.27734C2.16406 7.36328 2.10547 7.49219 2.05078 7.66406C2.00391 7.83594 1.94531 8.00781 1.875 8.17969C1.80469 8.34375 1.72266 8.49219 1.62891 8.625C1.53516 8.75 1.42188 8.8125 1.28906 8.8125C1.24219 8.8125 1.18359 8.80469 1.11328 8.78906C1.05078 8.76562 0.992188 8.73828 0.9375 8.70703C0.882812 8.66797 0.835938 8.625 0.796875 8.57812C0.757812 8.52344 0.738281 8.46875 0.738281 8.41406C0.738281 8.30469 0.761719 8.21094 0.808594 8.13281C0.863281 8.05469 0.890625 7.96484 0.890625 7.86328L1.62891 6.33984C1.63672 6.32422 1.64453 6.29688 1.65234 6.25781C1.66797 6.21875 1.67969 6.19141 1.6875 6.17578V6.14062V6.12891C1.53125 5.91016 1.375 5.67969 1.21875 5.4375C1.07031 5.1875 0.933594 4.95703 0.808594 4.74609C0.683594 4.53516 0.574219 4.35156 0.480469 4.19531C0.394531 4.03125 0.335938 3.91797 0.304688 3.85547C0.242188 3.77734 0.210938 3.69531 0.210938 3.60938C0.210938 3.52344 0.230469 3.44922 0.269531 3.38672C0.316406 3.31641 0.378906 3.26172 0.457031 3.22266C0.535156 3.17578 0.621094 3.15234 0.714844 3.15234C0.847656 3.15234 0.953125 3.17578 1.03125 3.22266C1.10938 3.26953 1.17578 3.34766 1.23047 3.45703C1.36328 3.73828 1.49609 4.00781 1.62891 4.26562C1.76172 4.52344 1.91406 4.78125 2.08594 5.03906H2.09766C2.14453 4.98438 2.1875 4.90234 2.22656 4.79297C2.27344 4.68359 2.32031 4.52344 2.36719 4.3125C2.42188 4.10156 2.48828 3.83203 2.56641 3.50391C2.64453 3.17578 2.74609 2.76562 2.87109 2.27344C2.88672 2.20312 2.93359 2.13672 3.01172 2.07422C3.09766 2.00391 3.17188 1.96875 3.23438 1.96875H3.28125C3.39062 1.99219 3.47656 2.01172 3.53906 2.02734C3.60156 2.03516 3.64844 2.05469 3.67969 2.08594C3.71094 2.10938 3.73047 2.15234 3.73828 2.21484C3.75391 2.27734 3.76562 2.36719 3.77344 2.48438C3.76562 2.60156 3.73828 2.75781 3.69141 2.95312C3.65234 3.14844 3.60156 3.36328 3.53906 3.59766C3.48438 3.83203 3.42188 4.07422 3.35156 4.32422C3.28125 4.57422 3.21094 4.80859 3.14062 5.02734C3.07031 5.23828 3.00781 5.42578 2.95312 5.58984C2.89844 5.75391 2.85547 5.86719 2.82422 5.92969V6.03516L5.09766 8.30859C5.14453 8.35547 5.17188 8.40234 5.17969 8.44922C5.19531 8.48828 5.20312 8.53516 5.20312 8.58984C5.20312 8.71484 5.16406 8.81641 5.08594 8.89453C5.01562 8.96484 4.92188 9 4.80469 9C4.69531 9 4.57812 8.97266 4.45312 8.91797C4.33594 8.85547 4.23438 8.78125 4.14844 8.69531L2.47266 7.01953H2.37891ZM6.36328 6.28125C6.31641 6.17969 6.27734 6.09766 6.24609 6.03516C6.22266 5.97266 6.21094 5.89844 6.21094 5.8125C6.21094 5.74219 6.21875 5.67969 6.23438 5.625C6.25781 5.5625 6.26953 5.49609 6.26953 5.42578C6.26953 5.25391 6.26172 5.09375 6.24609 4.94531C6.23828 4.79688 6.22656 4.63281 6.21094 4.45312C6.20312 4.42969 6.17578 4.41016 6.12891 4.39453C6.08203 4.37891 6.03125 4.35938 5.97656 4.33594C5.92188 4.30469 5.87109 4.26172 5.82422 4.20703C5.78516 4.15234 5.76562 4.07422 5.76562 3.97266C5.76562 3.87891 5.78516 3.80078 5.82422 3.73828C5.87109 3.66797 5.91797 3.60547 5.96484 3.55078C6.01172 3.48828 6.05469 3.42578 6.09375 3.36328C6.14062 3.29297 6.16406 3.21094 6.16406 3.11719C6.16406 3.07812 6.16016 3.00781 6.15234 2.90625C6.14453 2.79688 6.13672 2.68359 6.12891 2.56641C6.12891 2.44922 6.125 2.33984 6.11719 2.23828C6.11719 2.12891 6.11719 2.05469 6.11719 2.01562V1.99219V1.96875C6.14844 1.89844 6.17188 1.83984 6.1875 1.79297C6.21094 1.74609 6.23438 1.71094 6.25781 1.6875C6.28125 1.66406 6.3125 1.64844 6.35156 1.64062C6.39062 1.625 6.44141 1.61719 6.50391 1.61719C6.66797 1.61719 6.78906 1.64844 6.86719 1.71094C6.94531 1.77344 7 1.84766 7.03125 1.93359C7.0625 2.01172 7.08203 2.08594 7.08984 2.15625C7.09766 2.22656 7.11719 2.26562 7.14844 2.27344L7.99219 1.53516H8.03906C8.3125 1.35547 8.60156 1.21875 8.90625 1.125C9.21094 1.02344 9.53125 0.972656 9.86719 0.972656C9.96875 0.972656 10.0898 0.984375 10.2305 1.00781C10.3789 1.03125 10.5156 1.07422 10.6406 1.13672C10.7734 1.19141 10.8828 1.26562 10.9688 1.35938C11.0625 1.45312 11.1094 1.57031 11.1094 1.71094C11.1094 1.86719 11.0898 2.02734 11.0508 2.19141C11.0117 2.35547 10.957 2.51953 10.8867 2.68359C10.8242 2.83984 10.7461 2.99219 10.6523 3.14062C10.5664 3.28125 10.4727 3.40234 10.3711 3.50391C10.332 3.58984 10.082 3.80859 9.62109 4.16016C9.16016 4.51172 8.47266 5.03516 7.55859 5.73047L13.1836 6.08203C13.2617 6.08984 13.3672 6.09766 13.5 6.10547C13.6406 6.10547 13.7734 6.11719 13.8984 6.14062C14.0312 6.16406 14.1445 6.21094 14.2383 6.28125C14.332 6.34375 14.3789 6.44141 14.3789 6.57422C14.3789 6.64453 14.3672 6.70312 14.3438 6.75C14.3281 6.78906 14.3047 6.82422 14.2734 6.85547C14.25 6.87891 14.2188 6.90234 14.1797 6.92578C14.1484 6.94922 14.1172 6.98047 14.0859 7.01953H13.8867H13.6875C13.5312 7.00391 13.3672 6.98438 13.1953 6.96094C13.0312 6.9375 12.8359 6.91016 12.6094 6.87891C12.3906 6.84766 12.1328 6.81641 11.8359 6.78516C11.5391 6.75391 11.1836 6.72656 10.7695 6.70312C10.3555 6.67969 9.87109 6.66016 9.31641 6.64453C8.76953 6.62891 8.13281 6.62109 7.40625 6.62109C7.39844 6.62109 7.38672 6.63281 7.37109 6.65625C7.36328 6.67969 7.35938 6.69922 7.35938 6.71484C7.35938 7.01172 7.38281 7.30469 7.42969 7.59375C7.48438 7.875 7.51172 8.15625 7.51172 8.4375C7.51172 8.49219 7.50391 8.55469 7.48828 8.625C7.48047 8.6875 7.46094 8.75 7.42969 8.8125C7.39844 8.86719 7.35938 8.91406 7.3125 8.95312C7.26562 8.99219 7.20703 9.01172 7.13672 9.01172C7.08984 9.01172 7.03516 9.00391 6.97266 8.98828C6.91016 8.96484 6.84766 8.93359 6.78516 8.89453C6.73047 8.85547 6.67969 8.8125 6.63281 8.76562C6.58594 8.71875 6.55859 8.66406 6.55078 8.60156L6.36328 6.28125ZM7.14844 3.69141C7.14844 3.88672 7.15234 4.07031 7.16016 4.24219C7.16797 4.41406 7.17969 4.60156 7.19531 4.80469H7.23047C7.23828 4.80469 7.25781 4.79688 7.28906 4.78125C7.32031 4.76562 7.39844 4.71875 7.52344 4.64062C7.64844 4.55469 7.83984 4.42578 8.09766 4.25391C8.35547 4.07422 8.71875 3.82422 9.1875 3.50391C9.28125 3.44922 9.38281 3.35547 9.49219 3.22266C9.60156 3.08984 9.70312 2.94531 9.79688 2.78906C9.89062 2.63281 9.96875 2.48047 10.0312 2.33203C10.0938 2.17578 10.125 2.04688 10.125 1.94531C10.125 1.86719 10.0859 1.82812 10.0078 1.82812C9.9375 1.82812 9.875 1.82812 9.82031 1.82812C9.70312 1.82812 9.57031 1.84766 9.42188 1.88672C9.27344 1.92578 9.09375 2.00391 8.88281 2.12109C8.67969 2.23828 8.43359 2.40625 8.14453 2.625C7.86328 2.84375 7.53125 3.13672 7.14844 3.50391V3.69141ZM16.3711 8.55469C16.3711 8.48438 16.375 8.42969 16.3828 8.39062C16.3984 8.34375 16.4453 8.30078 16.5234 8.26172C16.5312 8.25391 16.5508 8.25 16.582 8.25C16.6133 8.24219 16.6445 8.23438 16.6758 8.22656C16.7148 8.21875 16.7461 8.21484 16.7695 8.21484C16.8008 8.20703 16.8203 8.20312 16.8281 8.20312C16.875 8.19531 16.9258 8.17578 16.9805 8.14453C17.043 8.10547 17.1016 8.06641 17.1562 8.02734C17.2188 7.98047 17.2734 7.9375 17.3203 7.89844C17.3672 7.85938 17.4023 7.83203 17.4258 7.81641C17.6523 7.62109 17.8047 7.40625 17.8828 7.17188C17.9688 6.9375 18.0117 6.67578 18.0117 6.38672C18.0117 6.34766 18.0117 6.29297 18.0117 6.22266C18.0117 6.15234 18.0078 6.08203 18 6.01172C18 5.93359 17.9883 5.86719 17.9648 5.8125C17.9414 5.75 17.9062 5.70703 17.8594 5.68359C17.8438 5.67578 17.8047 5.67188 17.7422 5.67188C17.6875 5.67188 17.6523 5.67188 17.6367 5.67188C17.457 5.67188 17.2852 5.71094 17.1211 5.78906C16.9648 5.85938 16.8086 5.94141 16.6523 6.03516C16.5039 6.12109 16.3477 6.20312 16.1836 6.28125C16.0273 6.35156 15.8555 6.38672 15.668 6.38672C15.543 6.38672 15.4453 6.34766 15.375 6.26953C15.3047 6.18359 15.2695 6.08203 15.2695 5.96484C15.2695 5.83984 15.3438 5.67188 15.4922 5.46094C15.6406 5.25 15.8086 5.02734 15.9961 4.79297C16.1836 4.55859 16.3672 4.32812 16.5469 4.10156C16.7266 3.86719 16.8516 3.66797 16.9219 3.50391H16.8281C16.6484 3.50391 16.4844 3.54297 16.3359 3.62109C16.1875 3.69141 16.0469 3.76953 15.9141 3.85547C15.7812 3.94141 15.6484 4.02344 15.5156 4.10156C15.3906 4.17188 15.2578 4.20703 15.1172 4.20703C15.0156 4.20703 14.9102 4.18359 14.8008 4.13672C14.6914 4.08203 14.6367 3.98828 14.6367 3.85547C14.6367 3.74609 14.6953 3.63672 14.8125 3.52734C14.9297 3.41016 15.082 3.30469 15.2695 3.21094C15.457 3.10938 15.6641 3.01562 15.8906 2.92969C16.125 2.84375 16.3516 2.76953 16.5703 2.70703C16.7969 2.64453 17.0039 2.59766 17.1914 2.56641C17.3789 2.52734 17.5234 2.50781 17.625 2.50781C17.9141 2.50781 18.0586 2.66016 18.0586 2.96484V3.11719C17.9258 3.46875 17.7656 3.78516 17.5781 4.06641C17.3906 4.33984 17.2031 4.63281 17.0156 4.94531H17.1328C17.2422 4.94531 17.3398 4.9375 17.4258 4.92188C17.5195 4.90625 17.6211 4.89844 17.7305 4.89844C18.043 4.89844 18.2891 5 18.4688 5.20312C18.6484 5.39844 18.7773 5.64062 18.8555 5.92969C18.8555 5.96875 18.8555 6.05078 18.8555 6.17578C18.8633 6.29297 18.8672 6.36719 18.8672 6.39844C18.8672 6.92188 18.7578 7.37109 18.5391 7.74609C18.3203 8.11328 17.9961 8.44531 17.5664 8.74219C17.3477 8.91406 17.1094 9 16.8516 9C16.7266 9 16.6133 8.95703 16.5117 8.87109C16.418 8.77734 16.3711 8.67188 16.3711 8.55469ZM20.8008 8.625C20.8008 8.55469 20.8242 8.49219 20.8711 8.4375C20.9258 8.38281 20.9531 8.32422 20.9531 8.26172C20.9531 8.24609 20.9375 8.22656 20.9062 8.20312C20.875 8.17969 20.8555 8.16406 20.8477 8.15625C20.7695 8.03906 20.7266 7.90625 20.7188 7.75781C20.7109 7.60938 20.707 7.46875 20.707 7.33594C20.707 6.61719 20.7109 5.90625 20.7188 5.20312C20.7266 4.5 20.7305 3.78906 20.7305 3.07031C20.6523 3.07031 20.5781 3.08984 20.5078 3.12891C20.4375 3.16016 20.3633 3.19922 20.2852 3.24609C20.207 3.28516 20.125 3.32422 20.0391 3.36328C19.9531 3.39453 19.8594 3.41016 19.7578 3.41016H19.5703C19.5547 3.38672 19.5156 3.36719 19.4531 3.35156C19.3906 3.32812 19.3594 3.30078 19.3594 3.26953V2.91797C19.3984 2.89453 19.4297 2.86328 19.4531 2.82422C19.4844 2.77734 19.5078 2.73828 19.5234 2.70703L20.707 2.12109L20.7539 2.0625C20.7383 1.84375 20.75 1.66797 20.7891 1.53516C20.8281 1.40234 20.9648 1.33594 21.1992 1.33594C21.2617 1.33594 21.3281 1.34766 21.3984 1.37109C21.4766 1.39453 21.5469 1.42578 21.6094 1.46484C21.6797 1.50391 21.7305 1.55469 21.7617 1.61719C21.8008 1.67969 21.8125 1.75 21.7969 1.82812C22.1875 1.84375 22.5742 1.875 22.957 1.92188C23.3398 1.96094 23.6836 2.05469 23.9883 2.20312C24.293 2.34375 24.5391 2.55469 24.7266 2.83594C24.9219 3.11719 25.0195 3.50391 25.0195 3.99609C25.0195 4.44141 24.9336 4.88672 24.7617 5.33203C24.5898 5.77734 24.3438 6.16016 24.0234 6.48047L21.7969 8.69531C21.6875 8.80469 21.5938 8.88281 21.5156 8.92969C21.4453 8.97656 21.3398 9 21.1992 9C21.082 9 20.9844 8.96875 20.9062 8.90625C20.8359 8.83594 20.8008 8.74219 20.8008 8.625ZM21.7969 7.57031H21.75L21.8438 7.51172C21.8516 7.50391 21.8789 7.48047 21.9258 7.44141C21.9805 7.39453 22.0391 7.34375 22.1016 7.28906C22.1641 7.22656 22.2266 7.16797 22.2891 7.11328C22.3516 7.05859 22.4023 7.01172 22.4414 6.97266C22.6211 6.78516 22.8086 6.58594 23.0039 6.375C23.207 6.16406 23.3906 5.94141 23.5547 5.70703C23.7188 5.46484 23.8516 5.21484 23.9531 4.95703C24.0625 4.69141 24.1172 4.41406 24.1172 4.125C24.1172 3.85156 24.0664 3.62109 23.9648 3.43359C23.8633 3.23828 23.7266 3.08203 23.5547 2.96484C23.3906 2.83984 23.1953 2.75 22.9688 2.69531C22.7422 2.64062 22.5 2.61328 22.2422 2.61328C22.2188 2.61328 22.1484 2.62109 22.0312 2.63672C21.9219 2.64453 21.8438 2.66797 21.7969 2.70703V7.57031Z" fill="white"/>
</svg>
